<?xml version="1.0" encoding="UTF-8" standalone="no"?>
<svg
   xmlns:dc="http://purl.org/dc/elements/1.1/"
   xmlns:cc="http://creativecommons.org/ns#"
   xmlns:rdf="http://www.w3.org/1999/02/22-rdf-syntax-ns#"
   xmlns:svg="http://www.w3.org/2000/svg"
   xmlns="http://www.w3.org/2000/svg"
   xmlns:sodipodi="http://sodipodi.sourceforge.net/DTD/sodipodi-0.dtd"
   xmlns:inkscape="http://www.inkscape.org/namespaces/inkscape"
   width="512"
   height="512"
   viewBox="0 0 135.46666 135.46671"
   version="1.1"
   id="svg8"
   inkscape:version="1.0.1 (c497b03c, 2020-09-10)"
   sodipodi:docname="favicon-outline.svg">
  <defs
     id="defs2">
    <inkscape:perspective
       sodipodi:type="inkscape:persp3d"
       inkscape:vp_x="0 : 67.733355 : 1"
       inkscape:vp_y="0 : 1000 : 0"
       inkscape:vp_z="135.46666 : 67.733355 : 1"
       inkscape:persp3d-origin="67.73333 : 45.15557 : 1"
       id="perspective849" />
  </defs>
  <sodipodi:namedview
     id="base"
     pagecolor="#ffffff"
     bordercolor="#666666"
     borderopacity="1.0"
     inkscape:pageopacity="0.0"
     inkscape:pageshadow="2"
     inkscape:zoom="0.60671165"
     inkscape:cx="57.675689"
     inkscape:cy="358.98841"
     inkscape:document-units="px"
     inkscape:current-layer="layer1"
     inkscape:document-rotation="0"
     showgrid="false"
     units="px"
     inkscape:pagecheckerboard="true"
     inkscape:window-width="1252"
     inkscape:window-height="786"
     inkscape:window-x="171"
     inkscape:window-y="25"
     inkscape:window-maximized="0" />
  <metadata
     id="metadata5">
    <rdf:RDF>
      <cc:Work
         rdf:about="">
        <dc:format>image/svg+xml</dc:format>
        <dc:type
           rdf:resource="http://purl.org/dc/dcmitype/StillImage" />
        <dc:title></dc:title>
      </cc:Work>
    </rdf:RDF>
  </metadata>
  <g
     inkscape:label="Layer 1"
     inkscape:groupmode="layer"
     id="layer1">
    <path
       id="rect833-8"
       style="fill:#000000;fill-opacity:1;stroke-width:18.6558;stroke-linecap:square;stroke-linejoin:round;stroke-miterlimit:10;paint-order:markers stroke fill"
       d="M 134.47852 55.888672 L 100.70898 148.93164 L 353.98047 136.54883 L 342.72266 80.267578 L 134.47852 55.888672 z M 353.98047 144.01172 L 221.50195 150.48828 L 100.70898 156.39453 L 120.96875 228.4375 L 337.0957 192.41602 L 350.43164 154.18555 L 353.98047 144.01172 z M 425.98828 176.57227 L 285.43555 216.17578 L 279.99609 246.03711 L 424.55078 202.43359 L 425.98828 176.57227 z M 276.52539 212.83789 L 216.92969 222.77148 L 216.95117 222.43945 L 173.875 229.61914 L 173.875 285.79883 L 118.36328 300.78516 L 107.10742 338.2832 L 173.875 341.23828 L 173.875 428.65625 L 149.11133 456.11133 L 202.17383 456.11133 L 229.0332 456.11133 L 276.52539 212.83789 z M 92.910156 341.38672 L 105.99219 381.88086 L 86.011719 389.3418 L 86.011719 400.30859 L 105.99219 407.76953 L 92.910156 448.26172 L 138.49023 405.9043 L 165.93164 405.9043 L 165.93164 383.74609 L 138.49023 383.74609 L 92.910156 341.38672 z "
       transform="scale(0.26458337)" />
  </g>
</svg>
