<?xml version="1.0" standalone="no"?>
<!DOCTYPE svg PUBLIC "-//W3C//DTD SVG 20010904//EN"
 "http://www.w3.org/TR/2001/REC-SVG-20010904/DTD/svg10.dtd">
<svg version="1.0" xmlns="http://www.w3.org/2000/svg"
 width="700.000000pt" height="700.000000pt" viewBox="0 0 700.000000 700.000000"
 preserveAspectRatio="xMidYMid meet">
<metadata>
Created by potrace 1.14, written by Peter Selinger 2001-2017
</metadata>
<g transform="translate(0.000000,700.000000) scale(0.100000,-0.100000)"
fill="#000000" stroke="none">
<path d="M1834 6226 c-2 -6 -26 -74 -54 -151 -107 -296 -151 -416 -215 -595
-37 -102 -71 -194 -76 -205 -13 -32 -109 -301 -109 -307 0 -3 12 -4 28 -3 15
2 101 6 191 10 90 3 189 8 220 10 31 2 112 7 181 10 183 8 312 14 425 20 164
8 304 15 415 20 258 12 321 15 416 20 55 3 143 8 195 10 52 2 139 7 194 10 55
3 154 7 220 10 66 3 158 7 205 10 98 5 257 13 415 21 61 3 135 7 165 8 30 2
85 4 122 5 l67 1 -5 28 c-12 66 -147 737 -149 740 -4 5 -76 15 -190 27 -27 3
-63 7 -80 10 -16 2 -57 6 -90 10 -33 4 -71 8 -85 11 -14 2 -52 6 -85 9 -33 3
-91 9 -130 15 -38 5 -95 12 -125 15 -30 4 -66 8 -80 10 -14 2 -52 6 -85 10
-33 3 -77 8 -98 11 -21 3 -53 7 -70 9 -100 10 -155 16 -177 20 -14 3 -56 7
-95 11 -38 3 -77 7 -87 9 -9 2 -48 7 -85 10 -37 4 -76 9 -86 11 -10 2 -48 6
-85 10 -36 3 -74 7 -84 9 -9 2 -48 7 -85 10 -37 4 -76 9 -86 11 -10 2 -48 6
-85 10 -36 3 -73 7 -82 9 -8 2 -46 6 -85 10 -38 4 -78 9 -88 11 -10 2 -48 6
-85 9 -37 3 -78 8 -92 10 -26 5 -71 10 -155 20 -27 3 -81 9 -118 14 -47 5 -70
4 -73 -3z"/>
<path d="M4657 5024 c-1 -1 -81 -5 -177 -9 -96 -4 -193 -8 -215 -10 -22 -2
-110 -6 -195 -9 -85 -4 -180 -8 -210 -11 -30 -2 -116 -7 -190 -10 -74 -3 -169
-8 -210 -10 -41 -2 -131 -6 -200 -10 -149 -7 -290 -13 -420 -20 -227 -12 -292
-15 -405 -20 -66 -3 -156 -7 -200 -10 -44 -2 -145 -7 -225 -10 -80 -4 -163 -8
-185 -10 -22 -2 -123 -7 -225 -11 -102 -4 -192 -8 -200 -9 -20 -3 -17 -39 14
-139 13 -45 50 -173 81 -286 31 -113 60 -216 65 -230 5 -14 27 -94 51 -178
l42 -153 46 6 c25 3 114 18 196 32 83 13 164 27 180 29 26 5 155 26 225 38 14
3 230 39 480 80 250 42 466 78 480 80 14 3 95 16 180 30 85 14 166 28 180 30
35 7 339 57 375 62 17 3 71 12 120 21 50 8 105 17 124 20 104 15 362 61 367
65 2 3 29 77 60 164 50 143 159 448 172 482 4 11 -14 13 -87 11 -51 -2 -93 -4
-94 -5z"/>
<path d="M5605 4525 c-104 -30 -212 -61 -240 -69 -27 -8 -196 -56 -375 -106
-702 -196 -828 -232 -895 -251 -38 -11 -95 -28 -125 -36 -30 -9 -58 -19 -63
-23 -4 -4 -16 -56 -27 -116 -25 -141 -29 -165 -35 -190 -12 -54 -16 -94 -8
-94 4 0 37 9 73 21 36 11 72 22 80 24 12 3 534 161 734 222 27 8 57 16 65 18
9 3 129 38 266 80 138 42 356 108 485 147 129 38 241 74 249 78 18 10 18 10
26 182 3 78 7 146 8 152 4 20 -32 14 -218 -39z"/>
<path d="M3749 4086 c-2 -2 -23 -6 -47 -10 -24 -3 -84 -13 -135 -21 -51 -9
-105 -18 -122 -21 -16 -2 -55 -9 -85 -14 -30 -5 -68 -12 -85 -14 -34 -6 -206
-35 -245 -41 -14 -3 -47 -7 -75 -10 -27 -3 -57 -8 -65 -10 -8 -2 -35 -7 -60
-10 -30 -4 -455 -74 -455 -75 0 0 1 -173 1 -384 l1 -384 -76 -20 c-202 -52
-675 -183 -680 -188 -5 -4 -36 -101 -56 -174 -2 -8 -13 -46 -25 -85 -12 -38
-26 -86 -32 -105 -5 -19 -16 -54 -24 -78 -23 -70 -23 -69 69 -71 45 -1 116 -4
157 -6 41 -2 131 -7 200 -9 105 -5 350 -16 440 -20 l25 -1 1 -595 c1 -544 0
-597 -16 -617 -14 -17 -123 -141 -165 -187 -89 -95 -145 -159 -145 -164 0 -4
162 -7 359 -7 222 -1 357 3 354 9 -4 5 -1 6 8 0 8 -5 92 -9 186 -9 191 -2 176
-7 189 70 10 60 52 278 99 510 13 66 26 131 28 145 7 38 84 432 122 625 19 94
36 184 39 200 3 17 8 41 11 55 19 95 25 128 30 153 11 57 16 85 40 207 13 69
27 136 29 150 3 14 26 131 51 260 26 129 49 246 51 260 2 14 7 39 11 55 3 17
7 37 8 45 2 8 5 29 9 45 16 84 96 494 101 518 4 24 -11 37 -26 23z"/>
<path d="M1272 2320 c3 -8 37 -116 77 -240 40 -124 78 -242 86 -262 l14 -37
-57 -21 c-31 -12 -88 -33 -127 -48 -38 -14 -75 -29 -81 -33 -6 -5 -10 -40 -10
-81 l1 -73 136 -50 136 -50 -83 -255 c-45 -140 -85 -263 -89 -272 -12 -30 6
-20 69 39 34 31 95 89 136 127 85 79 288 269 365 339 l50 46 188 1 187 0 0
150 c0 83 -3 151 -7 151 -5 1 -90 2 -191 3 l-182 2 -52 49 c-28 28 -61 59 -72
70 -12 11 -111 103 -221 204 -110 102 -205 189 -210 195 -32 33 -68 59 -63 46z"/>
</g>
</svg>
